<svg t="1651328261332" class="icon" viewBox="0 0 1024 1024" version="1.1" xmlns="http://www.w3.org/2000/svg" p-id="3726" width="200" height="200">
  <path d="M313.223529 415.623529h-120.470588V210.823529C192.752941 96.376471 289.129412 6.023529 409.6 6.023529h198.776471c120.470588 0 216.847059 90.352941 216.847058 204.8v204.8h-114.447058V210.823529c0-54.211765-42.164706-96.376471-96.376471-96.37647H409.6c-54.211765 0-96.376471 42.164706-96.376471 96.37647v204.8z" p-id="3727" fill="#2c2c2c"></path>
  <path d="M499.952941 1017.976471c-252.988235 0-457.788235-138.541176-457.788235-481.882353 0-66.258824 60.235294-120.470588 126.494118-120.470589h674.635294c72.282353 0 126.494118 54.211765 126.494117 120.470589 6.023529 367.435294-234.917647 481.882353-469.835294 481.882353zM512 560.188235c-48.188235 0-90.352941 36.141176-90.352941 90.352941 0 30.117647 18.070588 60.235294 42.164706 72.282353v96.376471h96.37647V722.823529c24.094118-18.070588 42.164706-42.164706 42.164706-72.282353 0-48.188235-42.164706-90.352941-90.352941-90.352941z" p-id="3728" fill="#2c2c2c"></path>
</svg>