<svg t="1654428314779" class="icon" viewBox="0 0 1024 1024" version="1.1" xmlns="http://www.w3.org/2000/svg" p-id="2144" width="200" height="200">
  <path d="M801.469 307.63C786.431 158.27 662.45 41.37 512.219 41.37s-274.206 116.9-289.25 266.265c-76.117 16.828-133.525 89.194-133.525 175.664l0 318.162c0 98.889 75.101 179.351 167.411 179.351l510.74 0c92.309 0 167.405-80.463 167.405-179.351L935 483.299C935 396.829 877.592 324.463 801.469 307.63zM512.219 109.916c111.879 0 204.564 84.381 220.843 194.014L291.376 303.93C307.661 194.297 400.34 109.916 512.219 109.916zM867.845 801.461c0 61.095-44.972 110.805-100.251 110.805l-510.74 0c-55.284 0-100.262-49.709-100.262-110.805L156.592 483.299c0-61.108 44.978-110.823 100.262-110.823l510.74 0c55.279 0 100.251 49.716 100.251 110.823L867.845 801.461z" p-id="2145" fill="#ffffff"></path>
  <path d="M476.066 605.066c-9.487 9.689-15.113 23.279-15.113 36.905 0 13.849 5.627 27.468 15.113 37.15 9.493 9.689 22.812 15.189 36.159 15.189 13.591 0 26.659-5.5 36.396-15.189 9.493-9.933 14.876-23.301 14.876-37.15 0-13.625-5.383-27.216-15.127-36.905C529.397 585.444 495.298 585.696 476.066 605.066z" p-id="2146" fill="#ffffff"></path>
</svg>