<svg t="1652498670503" class="icon" viewBox="0 0 1024 1024" version="1.1" xmlns="http://www.w3.org/2000/svg" p-id="4064" width="200" height="200">
  <path d="M915.2 131.2L571.2 16C537.6 6.4 486.4 6.4 452.8 16L108.8 131.2C65.6 144 32 187.2 32 228.8v460.8c0 64 30.4 126.4 108.8 166.4l308.8 147.2c35.2 17.6 89.6 17.6 124.8 0l340.8-147.2c76.8-30.4 76.8-102.4 76.8-166.4V228.8c0-41.6-22.4-83.2-76.8-97.6zM896 795.2L532.8 953.6c-9.6 4.8-32 4.8-43.2 0L160 795.2c-32-16-60.8-59.2-60.8-94.4V211.2c0-4.8 8-14.4 12.8-16L480 73.6c16-4.8 48-4.8 64 0l368 121.6c6.4 1.6 12.8 11.2 12.8 16v489.6c0 33.6 3.2 78.4-28.8 94.4z m-209.6-400c0-96-78.4-174.4-174.4-174.4s-174.4 78.4-174.4 174.4c0 84.8 62.4 156.8 142.4 171.2v264h60.8v-131.2h137.6V636.8h-137.6v-70.4c83.2-16 145.6-86.4 145.6-171.2zM512 505.6c-62.4 0-112-49.6-112-112s49.6-112 112-112 112 49.6 112 112-49.6 112-112 112z" p-id="4065" fill="#ffffff"></path>
</svg>