<svg t="1652498733391" class="icon" viewBox="0 0 1024 1024" version="1.1" xmlns="http://www.w3.org/2000/svg" p-id="4933" width="200" height="200">
  <path d="M691.2 569.6c81.067-55.467 134.4-149.333 134.4-256C825.6 140.8 684.8 0 512 0S200.533 140.8 200.533 311.467c0 106.666 53.334 200.533 134.4 256C151.467 640 23.467 817.067 23.467 1024h87.466c0-204.8 155.734-375.467 354.134-398.933 2.133 0 55.466-4.267 100.266 0h4.267c194.133 27.733 343.467 194.133 343.467 396.8h89.6C1000.533 817.067 872.533 640 691.2 569.6zM512 546.133c-130.133 0-234.667-104.533-234.667-234.666C277.333 181.333 381.867 76.8 512 76.8c130.133 0 234.667 104.533 234.667 234.667 0 130.133-104.534 234.666-234.667 234.666z" p-id="4934" fill="#ffffff"></path>
</svg>